<svg width="601" height="554" viewBox="0 0 601 554" fill="none" xmlns="http://www.w3.org/2000/svg">
<g clip-path="url(#clip0)">
<g opacity="0.5">
<path opacity="0.5" d="M569.302 137.952H486.996V101.924C486.996 91.9161 483.52 82.3178 477.334 75.2409C471.148 68.164 462.758 64.1882 454.009 64.1882H77.1572C69.2204 64.1882 61.6085 67.7951 55.9963 74.2153C50.3841 80.6356 47.2312 89.3433 47.2312 98.423V137.974H34.8394C25.6081 137.97 16.7531 142.159 10.2203 149.62C3.68754 157.082 0.0114955 167.205 0 177.765V356.381C0.00669311 366.425 3.32997 376.096 9.30434 383.456C15.2787 390.816 23.4631 395.323 32.2186 396.074V436.475H67.3987V396.194H111.699V436.815H146.879V396.194H463.489V436.815H498.669V396.194H527.988V436.439H563.205V396.194H569.544C573.674 396.195 577.764 395.265 581.581 393.457C585.397 391.65 588.865 389 591.786 385.659C594.707 382.318 597.024 378.351 598.605 373.986C600.186 369.62 601 364.941 601 360.216V174.221C601.001 169.459 600.181 164.743 598.589 160.342C596.996 155.942 594.662 151.944 591.718 148.576C588.775 145.208 585.28 142.536 581.434 140.713C577.587 138.891 573.465 137.952 569.302 137.952ZM480.8 295.581V325.761H349.646C351.066 322.852 351.811 319.575 351.808 316.242V295.581H480.8Z" fill="url(#paint0_linear)"/>
</g>
<path d="M76.0791 381.097H42.2063V429.536H76.0791V381.097Z" fill="#E6F32B"/>
<path d="M491.358 381.458H457.485V429.897H491.358V381.458Z" fill="#E6F32B"/>
<path d="M553.459 381.097H519.586V429.536H553.459V381.097Z" fill="#E6F32B"/>
<path d="M152.611 381.458H118.738V429.897H152.611V381.458Z" fill="#E6F32B"/>
<path opacity="0.3" d="M76.0791 381.097H42.2063V429.536H76.0791V381.097Z" fill="black"/>
<path opacity="0.3" d="M491.358 381.458H457.485V429.897H491.358V381.458Z" fill="black"/>
<path opacity="0.3" d="M553.459 381.097H519.586V429.536H553.459V381.097Z" fill="black"/>
<path opacity="0.3" d="M152.611 381.458H118.738V429.897H152.611V381.458Z" fill="black"/>
<path d="M474.108 142.127H559.327C567.421 142.127 575.184 145.806 580.908 152.354C586.632 158.901 589.847 167.782 589.847 177.042V356.147C589.847 365.334 586.657 374.145 580.979 380.641C575.3 387.137 567.599 390.786 559.568 390.786H474.108V142.127Z" fill="#E6F32B"/>
<path opacity="0.3" d="M474.108 142.127H559.327C567.421 142.127 575.184 145.806 580.908 152.354C586.632 158.901 589.847 167.782 589.847 177.042V356.147C589.847 365.334 586.657 374.145 580.979 380.641C575.3 387.137 567.599 390.786 559.568 390.786H474.108V142.127Z" fill="black"/>
<path d="M85.4474 71.0848H248.591V293.908H56.6304V104.044C56.632 95.3018 59.6688 86.9186 65.0729 80.7378C70.4769 74.5571 77.8057 71.0848 85.4474 71.0848Z" fill="#E6F32B"/>
<path opacity="0.3" d="M86.3768 71.0848H248.591V293.908H56.6304V105.107C56.6304 100.638 57.3998 96.2138 58.8948 92.0856C60.3898 87.9574 62.581 84.2065 65.3433 81.0472C68.1056 77.8878 71.3848 75.3819 74.9938 73.6726C78.6028 71.9632 82.4707 71.0839 86.3768 71.0848Z" fill="black"/>
<path d="M129.618 71.0848H287.799V293.908H95.8379V109.721C95.8379 99.4742 99.3962 89.6469 105.73 82.4012C112.064 75.1554 120.654 71.0848 129.612 71.0848H129.618Z" fill="#E6F32B"/>
<path d="M286.869 71.0848H448.303C456.728 71.0848 464.807 74.9135 470.765 81.7285C476.722 88.5436 480.069 97.7868 480.069 107.425V293.908H286.869V71.0848Z" fill="#E6F32B"/>
<path d="M527.746 142.127H559.345C567.436 142.133 575.195 145.814 580.914 152.361C586.634 158.908 589.847 167.786 589.847 177.042V356.147C589.847 365.334 586.657 374.145 580.979 380.641C575.3 387.137 567.599 390.786 559.568 390.786H527.746V142.127Z" fill="#E6F32B"/>
<path d="M527.74 322.969H138.18V390.786H527.74V322.969Z" fill="#E6F32B"/>
<path d="M227.693 150.869L185.126 165.063C166.385 171.312 155.62 193.759 161.082 215.199L175.183 270.542C180.646 291.983 200.268 304.298 219.01 298.048L261.576 283.855C280.318 277.606 291.083 255.159 285.62 233.718L271.519 178.375C266.057 156.935 246.435 144.62 227.693 150.869Z" fill="url(#paint1_linear)"/>
<path d="M225.348 157.48L185.654 170.716C168.177 176.543 158.139 197.475 163.233 217.469L176.382 269.076C181.476 289.07 199.774 300.553 217.251 294.726L256.944 281.49C274.421 275.663 284.46 254.731 279.366 234.737L266.217 183.13C261.123 163.136 242.825 151.653 225.348 157.48Z" fill="#F55F44"/>
<path opacity="0.1" d="M225.348 157.48L185.654 170.716C168.177 176.543 158.139 197.475 163.233 217.469L176.382 269.076C181.476 289.07 199.774 300.553 217.251 294.726L256.944 281.49C274.421 275.663 284.46 254.731 279.366 234.737L266.217 183.13C261.123 163.136 242.825 151.653 225.348 157.48Z" fill="black"/>
<path d="M227.396 155.834L187.703 169.069C170.225 174.896 160.187 195.829 165.281 215.822L178.43 267.429C183.524 287.423 201.822 298.907 219.299 293.079L258.992 279.844C276.47 274.016 286.508 253.084 281.414 233.091L268.265 181.483C263.171 161.49 244.873 150.006 227.396 155.834Z" fill="#030C5C"/>
<path d="M218.906 200.388C222.733 197.31 223.653 191.266 220.962 186.889C218.271 182.512 212.987 181.459 209.161 184.538C205.335 187.616 204.415 193.66 207.106 198.037C209.797 202.414 215.08 203.467 218.906 200.388Z" fill="url(#paint2_linear)"/>
<path d="M259.428 227.002C263.255 223.924 264.175 217.88 261.484 213.503C258.793 209.126 253.509 208.073 249.683 211.152C245.857 214.23 244.937 220.274 247.628 224.651C250.319 229.028 255.602 230.081 259.428 227.002Z" fill="url(#paint3_linear)"/>
<path d="M196.575 253.877C200.401 250.798 201.322 244.754 198.631 240.377C195.94 236 190.656 234.948 186.83 238.026C183.004 241.105 182.084 247.149 184.775 251.526C187.466 255.903 192.749 256.955 196.575 253.877Z" fill="url(#paint4_linear)"/>
<path d="M234.784 282.354C238.61 279.275 239.53 273.232 236.839 268.855C234.148 264.478 228.865 263.425 225.039 266.503C221.213 269.582 220.293 275.626 222.984 280.003C225.675 284.38 230.958 285.432 234.784 282.354Z" fill="url(#paint5_linear)"/>
<path d="M217.281 197.745C219.831 195.693 220.444 191.665 218.651 188.748C216.857 185.831 213.336 185.13 210.787 187.181C208.237 189.233 207.623 193.261 209.417 196.178C211.21 199.095 214.731 199.796 217.281 197.745Z" fill="#F99F8F"/>
<path d="M257.803 224.358C260.353 222.307 260.966 218.279 259.173 215.362C257.379 212.445 253.858 211.744 251.309 213.795C248.759 215.847 248.145 219.875 249.939 222.792C251.732 225.709 255.253 226.41 257.803 224.358Z" fill="#F99F8F"/>
<path d="M194.95 251.233C197.5 249.181 198.113 245.154 196.32 242.237C194.526 239.32 191.005 238.618 188.455 240.67C185.906 242.721 185.292 246.749 187.086 249.666C188.879 252.583 192.4 253.285 194.95 251.233Z" fill="#4012C4"/>
<path d="M233.159 279.71C235.708 277.659 236.322 273.631 234.528 270.714C232.735 267.797 229.214 267.096 226.664 269.147C224.114 271.199 223.501 275.226 225.295 278.143C227.088 281.06 230.609 281.762 233.159 279.71Z" fill="#F99F8F"/>
<path d="M44.6909 142.127H169.228V390.786H44.6909C35.797 390.786 27.2674 386.745 20.9779 379.551C14.6884 372.357 11.1542 362.6 11.1526 352.426V180.494C11.1526 170.319 14.6861 160.56 20.9757 153.365C27.2654 146.169 35.796 142.127 44.6909 142.127Z" fill="#E6F32B"/>
<path opacity="0.3" d="M44.9263 142.127H137.982C142.088 142.127 146.154 143.053 149.948 144.851C153.741 146.65 157.187 149.286 160.089 152.609C162.992 155.931 165.293 159.876 166.862 164.217C168.431 168.558 169.237 173.21 169.234 177.907V355.035C169.234 364.516 165.942 373.61 160.081 380.315C154.22 387.019 146.271 390.786 137.982 390.786H44.9263C35.969 390.786 27.3785 386.715 21.0447 379.47C14.7109 372.224 11.1526 362.397 11.1526 352.15V180.742C11.1575 170.499 14.718 160.677 21.0512 153.436C27.3845 146.195 35.9722 142.127 44.9263 142.127Z" fill="black"/>
<path opacity="0.1" d="M107.443 142.127H161.836C164.63 142.127 167.309 143.397 169.284 145.656C171.26 147.916 172.369 150.981 172.369 154.177V378.737C172.369 381.932 171.26 384.997 169.284 387.257C167.309 389.517 164.63 390.786 161.836 390.786H107.443V142.127Z" fill="black"/>
<path d="M104.308 142.127H158.701C161.495 142.127 164.174 143.397 166.149 145.656C168.124 147.916 169.234 150.981 169.234 154.177V378.737C169.234 381.932 168.124 384.997 166.149 387.257C164.174 389.517 161.495 390.786 158.701 390.786H104.308V142.127Z" fill="#E6F32B"/>
<path d="M349.9 271.305H155.12V332.665H349.9V271.305Z" fill="#E6F32B"/>
<path d="M544.996 271.659H350.216V333.019H544.996V271.659Z" fill="#E6F32B"/>
<path opacity="0.15" d="M333.419 271.305H171.601C162.499 271.305 155.12 279.746 155.12 290.159V313.811C155.12 324.224 162.499 332.665 171.601 332.665H333.419C342.521 332.665 349.9 324.224 349.9 313.811V290.159C349.9 279.746 342.521 271.305 333.419 271.305Z" fill="white"/>
<path d="M372.638 158.451C378.873 158.451 383.927 152.669 383.927 145.537C383.927 138.404 378.873 132.622 372.638 132.622C366.404 132.622 361.35 138.404 361.35 145.537C361.35 152.669 366.404 158.451 372.638 158.451Z" fill="#E6F32B"/>
<path opacity="0.3" d="M372.638 158.451C378.873 158.451 383.927 152.669 383.927 145.537C383.927 138.404 378.873 132.622 372.638 132.622C366.404 132.622 361.35 138.404 361.35 145.537C361.35 152.669 366.404 158.451 372.638 158.451Z" fill="black"/>
<path d="M197.624 158.451C203.858 158.451 208.912 152.669 208.912 145.537C208.912 138.404 203.858 132.622 197.624 132.622C191.389 132.622 186.335 138.404 186.335 145.537C186.335 152.669 191.389 158.451 197.624 158.451Z" fill="#E6F32B"/>
<path opacity="0.3" d="M197.624 158.451C203.858 158.451 208.912 152.669 208.912 145.537C208.912 138.404 203.858 132.622 197.624 132.622C191.389 132.622 186.335 138.404 186.335 145.537C186.335 152.669 191.389 158.451 197.624 158.451Z" fill="black"/>
<path d="M191.973 77.3577C193.533 77.3577 194.798 75.1902 194.798 72.5166C194.798 69.8429 193.533 67.6755 191.973 67.6755C190.413 67.6755 189.148 69.8429 189.148 72.5166C189.148 75.1902 190.413 77.3577 191.973 77.3577Z" fill="#FDA57D"/>
<path opacity="0.15" d="M528.515 271.659H366.697C357.595 271.659 350.216 280.1 350.216 290.513V314.166C350.216 324.578 357.595 333.019 366.697 333.019H528.515C537.617 333.019 544.996 324.578 544.996 314.166V290.513C544.996 280.1 537.617 271.659 528.515 271.659Z" fill="white"/>
<g opacity="0.5">
<path opacity="0.5" d="M416.635 147.436C415.34 139.292 414.015 131.056 411.059 123.479C407.822 115.155 402.752 107.936 396.344 102.527C395.392 101.704 394.213 101.301 393.023 101.393C391.164 101.577 390.594 102.881 390.303 104.228C390.266 104.391 390.235 104.547 390.21 104.71C389.479 108.842 389.968 112.925 391.028 116.951C392.348 121.976 394.56 126.874 396.4 131.736C399.715 140.449 401.913 149.664 402.924 159.096C403.06 160.343 403.166 161.626 403.19 162.909C403.208 163.673 403.192 164.437 403.141 165.198C403.058 166.692 402.76 168.16 402.261 169.543C402.174 169.77 402.081 170.006 401.982 170.252C401.883 170.498 401.776 170.715 401.66 170.904C400.532 173.031 398.773 174.547 397.05 176.043C395.328 177.539 393.376 179.133 391.319 179.941H391.387C390.43 180.337 389.418 180.526 388.401 180.501C385.222 180.388 381.833 177.461 378.636 178.148L378.277 178.24C375.005 179.254 372.496 185.137 372.471 188.872C372.471 189.17 372.471 189.458 372.471 189.737C372.471 189.836 372.471 189.935 372.502 190.035C372.533 190.134 372.539 190.41 372.564 190.587C372.589 190.765 372.601 190.807 372.626 190.913C372.651 191.02 372.682 191.232 372.719 191.388C372.756 191.544 372.775 191.608 372.806 191.714C372.837 191.821 372.886 192.005 372.93 192.147C372.973 192.289 373.004 192.359 373.041 192.459C373.078 192.558 373.14 192.728 373.196 192.856L373.332 193.153C373.394 193.274 373.45 193.401 373.518 193.522L373.679 193.805L373.89 194.146L374.07 194.408L374.311 194.72L374.51 194.961L374.776 195.251L374.993 195.471L375.284 195.74L375.513 195.946L375.829 196.194L376.065 196.378L376.412 196.612L376.653 196.768L377.044 196.988L377.273 197.115C377.459 197.215 377.651 197.307 377.843 197.392L378.122 197.512L378.568 197.697L378.89 197.81L379.256 197.938L379.615 198.044L379.962 198.143L380.346 198.235L380.681 198.313L381.083 198.391L381.406 198.448L381.821 198.512L382.131 198.554L382.564 198.597H382.868H383.314H383.599H384.064H385.036H385.545H385.724L386.269 198.547H386.375C387.921 198.393 389.444 198.01 390.904 197.406C395.532 195.4 399.46 191.736 403.097 187.887C410.309 180.267 417.125 170.812 417.701 159.599C417.924 155.552 417.274 151.469 416.635 147.436Z" fill="url(#paint6_linear)"/>
</g>
<path opacity="0.1" d="M386.133 144.743H327.725V164.086H386.133V144.743Z" fill="black"/>
<path d="M386.133 144.743H327.725V162.328H386.133V144.743Z" fill="#E6F32B"/>
<path d="M361.542 147.089C366.633 147.089 370.761 142.367 370.761 136.542C370.761 130.717 366.633 125.995 361.542 125.995C356.45 125.995 352.322 130.717 352.322 136.542C352.322 142.367 356.45 147.089 361.542 147.089Z" fill="#E6F32B"/>
<path d="M344.156 152.773L344.045 152.646C344.254 152.465 344.424 152.231 344.54 151.962C344.657 151.693 344.718 151.397 344.718 151.097C344.718 150.797 344.657 150.501 344.54 150.232C344.424 149.963 344.254 149.729 344.045 149.548L344.144 149.406C344.368 149.605 344.549 149.86 344.674 150.151C344.798 150.442 344.863 150.762 344.863 151.086C344.863 151.411 344.798 151.73 344.674 152.022C344.549 152.313 344.368 152.567 344.144 152.766L344.156 152.773Z" fill="#4D8AF0"/>
<path opacity="0.1" d="M344.156 152.773L344.045 152.646C344.254 152.465 344.424 152.231 344.54 151.962C344.657 151.693 344.718 151.397 344.718 151.097C344.718 150.797 344.657 150.501 344.54 150.232C344.424 149.963 344.254 149.729 344.045 149.548L344.144 149.406C344.368 149.605 344.549 149.86 344.674 150.151C344.798 150.442 344.863 150.762 344.863 151.086C344.863 151.411 344.798 151.73 344.674 152.022C344.549 152.313 344.368 152.567 344.144 152.766L344.156 152.773Z" fill="black"/>
<path d="M344.045 152.773C343.821 152.574 343.64 152.32 343.515 152.029C343.39 151.737 343.325 151.418 343.325 151.093C343.325 150.769 343.39 150.449 343.515 150.158C343.64 149.867 343.821 149.612 344.045 149.414L344.144 149.555C343.935 149.736 343.765 149.97 343.648 150.239C343.531 150.508 343.47 150.804 343.47 151.104C343.47 151.404 343.531 151.7 343.648 151.969C343.765 152.238 343.935 152.472 344.144 152.653L344.045 152.773Z" fill="#4D8AF0"/>
<path d="M391.276 209.519C395.508 207.683 399.095 204.331 402.428 200.815C409.021 193.855 415.242 185.222 415.774 174.966C415.966 171.223 415.378 167.495 414.789 163.802C413.606 156.36 412.398 148.832 409.715 141.915C406.757 134.312 402.124 127.718 396.27 122.777C395.398 122.023 394.318 121.656 393.228 121.742C391.369 121.934 390.898 123.394 390.65 124.79C389.145 133.296 393.277 141.546 396.301 149.484C399.33 157.446 401.337 165.866 402.261 174.484C402.652 178.141 402.794 182.096 401.109 185.243C400.08 187.171 398.469 188.574 396.896 189.935C394.541 191.97 391.939 194.103 388.99 194.004C386.04 193.905 382.744 191.006 379.696 191.941C376.647 192.877 374.411 198.242 374.392 201.68C374.355 210.994 385.613 211.972 391.276 209.519Z" fill="#FFD180"/>
<g opacity="0.1">
<path opacity="0.1" d="M401.096 185.243C400.068 187.171 398.457 188.574 396.883 189.935C395.308 191.422 393.54 192.618 391.642 193.479C394.318 193.274 396.716 191.353 398.891 189.446C400.464 188.085 402.075 186.675 403.104 184.754C404.783 181.614 404.647 177.666 404.256 173.995C403.332 165.377 401.325 156.957 398.296 148.995C395.272 141.05 391.133 132.792 392.645 124.301C392.687 123.799 392.819 123.312 393.032 122.871C393.245 122.429 393.535 122.043 393.884 121.735C393.656 121.713 393.426 121.713 393.197 121.735C391.338 121.927 390.867 123.387 390.619 124.783C389.114 133.289 393.246 141.539 396.27 149.477C399.299 157.439 401.306 165.859 402.23 174.477C402.639 178.141 402.782 182.096 401.096 185.243Z" fill="black"/>
<path opacity="0.1" d="M376.412 201.212C376.412 198.037 378.388 193.21 381.046 191.764C380.593 191.751 380.141 191.811 379.702 191.941C376.709 192.87 374.417 198.242 374.398 201.68C374.361 210.37 384.144 211.787 390.061 209.966C384.182 210.944 376.375 208.952 376.412 201.212Z" fill="black"/>
</g>
<g opacity="0.5">
<path opacity="0.5" d="M333.258 104.327C333.258 104.327 350.135 100.464 358.574 104.327C358.574 104.327 363.636 90.8107 368.698 90.8107C373.76 90.8107 375.445 112.074 375.445 112.074L382.193 142.964C382.193 142.964 414.256 208.605 382.193 243.35C350.129 278.095 299.509 239.466 299.509 214.368C299.509 189.269 309.633 137.152 309.633 137.152C309.633 137.152 319.757 94.6807 323.134 90.8177C326.51 86.9548 333.258 104.327 333.258 104.327Z" fill="url(#paint7_linear)"/>
</g>
<path d="M333.828 107.014C333.828 107.014 350.048 103.3 358.159 107.014C358.159 107.014 363.023 94.0214 367.893 94.0214C372.763 94.0214 374.38 114.435 374.38 114.435L380.867 144.126C380.867 144.126 411.691 207.209 380.867 240.628C350.042 274.048 301.374 236.914 301.374 212.794C301.374 188.674 311.107 138.562 311.107 138.562C311.107 138.562 320.841 97.7355 324.088 94.0214C327.334 90.3073 333.828 107.014 333.828 107.014Z" fill="#FFD180"/>
<g opacity="0.1">
<path opacity="0.1" d="M392.199 178.814C389.71 166.752 385.896 155.099 380.848 144.133L381.87 148.825C386.266 158.357 389.729 168.414 392.199 178.814Z" fill="white"/>
<path opacity="0.1" d="M304.292 207.797C304.292 183.698 312.142 143.254 312.142 143.254C312.142 143.254 321.876 102.428 325.122 98.7137C328.369 94.9996 334.856 111.706 334.856 111.706C334.856 111.706 351.077 107.992 359.187 111.706C359.187 111.706 364.057 98.7137 368.921 98.7137C370.78 98.7137 372.211 101.79 373.215 105.554C372.223 100.046 370.538 94.0215 367.899 94.0215C363.035 94.0215 358.165 107.014 358.165 107.014C350.055 103.3 333.834 107.014 333.834 107.014C333.834 107.014 327.347 90.3145 324.1 94.0215C320.853 97.7285 311.12 138.562 311.12 138.562C311.12 138.562 303.27 178.963 303.27 203.105C303.263 205.288 304.292 208.492 304.292 207.797Z" fill="white"/>
</g>
<path d="M365.464 143.205C367.257 143.205 368.711 141.542 368.711 139.49C368.711 137.439 367.257 135.776 365.464 135.776C363.671 135.776 362.217 137.439 362.217 139.49C362.217 141.542 363.671 143.205 365.464 143.205Z" fill="#58555D"/>
<path d="M328.152 143.205C329.945 143.205 331.399 141.542 331.399 139.49C331.399 137.439 329.945 135.776 328.152 135.776C326.359 135.776 324.906 137.439 324.906 139.49C324.906 141.542 326.359 143.205 328.152 143.205Z" fill="#58555D"/>
<path d="M347.62 146.919C350.306 146.919 352.483 145.256 352.483 143.205C352.483 141.153 350.306 139.49 347.62 139.49C344.933 139.49 342.756 141.153 342.756 143.205C342.756 145.256 344.933 146.919 347.62 146.919Z" fill="#58555D"/>
<path d="M389.623 134.843L375.021 138.552L375.373 140.365L389.975 136.655L389.623 134.843Z" fill="#FFD180"/>
<path d="M391.267 142.268L375.043 145.967L375.361 147.788L391.585 144.09L391.267 142.268Z" fill="#FFD180"/>
<path d="M300.869 129.345L300.266 131.069L316.489 138.492L317.092 136.767L300.869 129.345Z" fill="#FFD180"/>
<path d="M295.85 138.59L295.604 140.425L316.694 144.139L316.941 142.303L295.85 138.59Z" fill="#FFD180"/>
<path opacity="0.1" d="M343.574 166.949C339.327 166.954 335.088 166.541 330.903 165.716C322.857 164.13 315.115 160.947 308.028 156.31L308.592 153.312C315.759 157.752 323.497 160.863 331.517 162.526C343.196 164.816 363.283 164.128 383.698 151.242L385.061 154.077C370.241 163.448 354.64 166.949 343.574 166.949Z" fill="black"/>
<path d="M383.698 150.555C363.252 163.441 343.189 164.128 331.516 161.839C323.497 160.175 315.759 157.065 308.592 152.624L307.092 155.36C314.52 160.03 322.562 163.288 330.903 165.007C335.09 165.835 339.331 166.25 343.58 166.247C354.646 166.247 370.222 162.753 385.092 153.397L383.698 150.555ZM344.1 165.992C344.038 165.992 343.977 165.971 343.925 165.931C343.873 165.892 343.832 165.835 343.808 165.769C343.784 165.703 343.778 165.63 343.79 165.56C343.803 165.49 343.833 165.426 343.877 165.375C343.921 165.325 343.977 165.29 344.039 165.276C344.1 165.262 344.163 165.27 344.221 165.297C344.279 165.324 344.328 165.371 344.363 165.43C344.398 165.489 344.416 165.559 344.416 165.631C344.415 165.725 344.381 165.816 344.321 165.882C344.262 165.948 344.183 165.985 344.1 165.985V165.992Z" fill="#F55F44"/>
<path opacity="0.1" d="M340.959 171.011C340.959 171.962 341.289 172.874 341.877 173.547C342.465 174.219 343.263 174.597 344.094 174.597C344.926 174.597 345.723 174.219 346.311 173.547C346.899 172.874 347.229 171.962 347.229 171.011C347.229 170.059 346.899 169.147 346.311 168.475C345.723 167.802 344.926 167.424 344.094 167.424C343.263 167.424 342.465 167.802 341.877 168.475C341.289 169.147 340.959 170.059 340.959 171.011ZM344.094 169.217C343.991 169.217 343.891 169.182 343.805 169.117C343.719 169.052 343.653 168.959 343.613 168.85C343.574 168.741 343.564 168.621 343.584 168.506C343.604 168.39 343.653 168.284 343.726 168.201C343.799 168.118 343.892 168.061 343.993 168.038C344.094 168.015 344.198 168.027 344.293 168.072C344.388 168.117 344.47 168.193 344.527 168.291C344.584 168.389 344.615 168.504 344.615 168.622C344.615 168.779 344.561 168.929 344.464 169.04C344.368 169.152 344.237 169.215 344.1 169.217H344.094Z" fill="url(#paint8_linear)"/>
<path d="M341.275 171.011C341.275 171.868 341.573 172.69 342.102 173.296C342.632 173.902 343.351 174.243 344.1 174.243C344.85 174.243 345.568 173.902 346.098 173.296C346.628 172.69 346.926 171.868 346.926 171.011C346.926 170.153 346.628 169.331 346.098 168.725C345.568 168.119 344.85 167.779 344.1 167.779C343.351 167.779 342.632 168.119 342.102 168.725C341.573 169.331 341.275 170.153 341.275 171.011ZM344.1 169.395C344.007 169.395 343.916 169.363 343.839 169.304C343.761 169.245 343.701 169.16 343.665 169.062C343.63 168.964 343.62 168.855 343.638 168.751C343.657 168.646 343.701 168.55 343.767 168.475C343.833 168.4 343.917 168.348 344.008 168.328C344.1 168.307 344.194 168.317 344.28 168.358C344.366 168.399 344.44 168.468 344.492 168.557C344.543 168.645 344.571 168.749 344.571 168.856C344.571 168.999 344.522 169.136 344.433 169.237C344.345 169.338 344.225 169.395 344.1 169.395Z" fill="#4D8AF0"/>
<path d="M379.541 151.632C336.362 180.693 311.479 153.758 311.479 153.758L379.541 151.632Z" fill="#FFD180"/>
<path d="M497.993 294.404C495.348 285.821 467.014 309.998 467.014 309.998L460.465 309.551L447.863 296.198L456.661 286.133L382.781 213.659C380.809 211.726 378.505 210.287 376.018 209.432C373.531 208.578 370.915 208.327 368.339 208.697L306.919 217.458C306.652 213.432 304.484 208.647 301.417 203.764C295.116 191.941 281.85 178.595 276.956 173.853L269.446 116.1L275.809 105.178C274.632 104.809 273.473 104.365 272.34 103.845L273.684 101.535L273.188 101.379L273.808 100.542H273.734L289.583 79.562C290.76 78.005 291.363 75.9866 291.266 73.9311C291.169 71.8756 290.379 69.9432 289.062 68.5403L253.591 37.7078C254.667 34.771 255.182 31.6055 255.103 28.4226C255.382 22.2986 252.984 16.0825 244.948 11.4824C239.975 8.7703 234.767 6.66536 229.408 5.20253C220.579 2.60354 211.302 2.76019 202.543 5.65616C202.401 5.45061 202.246 5.24506 202.085 5.03242C191.167 -9.24267 176.849 11.2698 176.291 12.1204L120.33 83.3257C118.808 86.0899 118.252 89.4078 118.771 92.6199C119.289 95.8321 120.846 98.7033 123.131 100.663L152.753 126.073L152.66 126.293L154.333 127.71C153.094 130.546 151.365 132.459 149.104 132.75L153.639 135.344C152.923 135.918 152.092 136.276 151.223 136.386L171.991 148.265C171.991 160.613 173.106 217.139 190.653 244.888C192.451 248.303 194.591 251.467 197.029 254.315C197.029 254.315 198.522 253.387 201.248 251.884L204.383 259.064C207.829 266.947 213.355 273.39 220.18 277.48C227.004 281.569 234.781 283.099 242.407 281.852L339.9 265.918L338.865 269.462L339.422 269.37L307.823 377.815L313.04 379.807L312.941 380.02L313.679 380.381L307.105 394.557L286.417 412.759C286.417 412.759 346.882 447.341 353.245 441.883C359.609 436.425 330.94 412.759 330.94 412.759L329.348 405.479L336.306 388.674L342.136 390.9L388.989 283.702L390.582 280.058L422.292 325.421L431.233 315.2L432.199 316.32L432.28 316.228L444.672 330.574L453.65 358.607C453.65 358.607 500.627 302.988 497.993 294.404ZM252.017 85.9483L251.398 85.1261C247.618 90.5342 240.933 97.0763 233.479 101.506V95.5453L233.832 95.1909V92.5967C238.544 87.6357 241.951 81.2682 243.669 74.2116C245.388 67.155 245.35 59.6896 243.56 52.6563L264.143 70.7376L252.017 85.9483ZM182.159 18.7334L181.663 18.1664L182.165 18.7334H182.159ZM165.709 56.6397C165.572 58.5298 165.517 60.4317 165.541 62.3455C165.505 65.1242 165.64 67.9024 165.944 70.6596C167.004 80.2921 170.021 88.1668 176.235 91.9234C181.651 95.1838 185.213 95.0067 187.481 92.781L187.729 93.0362C187.919 96.8036 188.775 100.488 190.244 103.867C178.644 101.096 167.565 95.9912 157.524 88.7905C157.524 88.7905 157.561 89.2725 157.604 90.1372L149.091 80.3984L165.709 56.6397Z" fill="url(#paint9_linear)"/>
<path d="M321.052 359.55L307.142 389.609L328.778 400.213L342.688 366.623L321.052 359.55Z" fill="#FDA57D"/>
<path d="M328.778 400.213L330.321 407.301C330.321 407.301 358.14 430.287 351.957 435.589C345.773 440.891 287.042 407.301 287.042 407.301L307.136 389.617L328.778 400.213Z" fill="#333333"/>
<path opacity="0.1" d="M341.207 369.742L319.317 361.4L312.805 375.462L334.441 386.073L341.207 369.742Z" fill="black"/>
<path d="M419.888 303.243L440.781 327.441L456.116 307.007L432.274 281.752L419.888 303.243Z" fill="#FDA57D"/>
<path opacity="0.1" d="M433.135 282.929L420.75 304.427L428.668 313.591L444.734 295.212L433.135 282.929Z" fill="black"/>
<path d="M456.116 307L462.479 307.432C462.479 307.432 489.989 283.964 492.56 292.299C495.131 300.635 449.505 354.673 449.505 354.673L440.787 327.441L456.116 307Z" fill="#333333"/>
<path d="M258.027 126.073L290.134 83.5454C291.278 82.0323 291.864 80.0707 291.769 78.0732C291.675 76.0757 290.906 74.1982 289.626 72.8356L219.761 12.2621L211.279 27.4019L265.425 75.0825L242.438 103.916L258.027 126.073Z" fill="#FDA57D"/>
<path opacity="0.1" d="M254.341 89.0387L243.108 103.13L258.715 125.315L274.824 104.008C266.966 101.162 259.901 95.9995 254.341 89.0387Z" fill="black"/>
<path d="M164.81 135.302L128.459 104.115C126.241 102.211 124.729 99.4216 124.225 96.3017C123.721 93.1817 124.262 89.959 125.739 87.2738L180.133 18.0317L191.285 30.79L153.658 84.4102L175.901 109.856L164.81 135.302Z" fill="#FDA57D"/>
<path opacity="0.1" d="M157.121 129.022L163.069 134.125L174.222 108.679L160.219 92.7102C160.516 98.1254 161.353 119.169 157.121 129.022Z" fill="black"/>
<path d="M341.201 258.809L307.83 373.329L341.201 386.051L396.809 258.809L352.322 246.086L341.201 258.809Z" fill="#002730"/>
<path opacity="0.1" d="M339.652 262.346L337.985 268.073L373.023 262.346L386.709 281.923L395.266 262.346L350.773 249.623L339.652 262.346Z" fill="black"/>
<path d="M180.058 18.1097C180.058 18.1097 194.309 -2.91313 205.133 11.2344C215.957 25.3819 188.132 27.1468 188.132 27.1468L180.058 18.1097Z" fill="#FDA57D"/>
<path d="M196.607 233.363L207.357 257.965C210.704 265.623 216.072 271.881 222.7 275.854C229.329 279.827 236.883 281.313 244.291 280.101L374.565 258.837L419.058 322.458L452.423 284.29L380.644 213.907C378.728 212.029 376.491 210.629 374.076 209.798C371.66 208.967 369.119 208.722 366.616 209.08L196.607 233.363Z" fill="#002730"/>
<path opacity="0.1" d="M163.918 96.1053C163.918 96.1053 166.849 137.428 155.727 138.846L177.97 151.604C177.97 151.604 176.731 226.53 200.213 253.394C200.213 253.394 243.467 226.53 289.192 227.948C334.918 229.366 278.04 177.05 278.04 177.05L270.53 119.127L276.726 108.495C268.349 105.625 260.85 100.11 255.09 92.5826C248.894 101.421 234.731 113.407 222.444 113.407H217.128C198.813 113.407 179.333 109.154 163.899 97.8844L163.918 96.1053Z" fill="black"/>
<path d="M161.855 92.5685C161.855 92.5685 164.81 133.891 153.658 135.302L175.901 148.06C175.901 148.06 174.662 222.986 198.144 249.85C198.144 249.85 241.397 222.986 287.123 224.404C332.849 225.822 275.97 173.506 275.97 173.506L268.461 115.583L274.657 104.951C266.28 102.081 258.781 96.566 253.021 89.0387C246.825 97.8773 232.661 109.863 220.375 109.863H215.059C196.744 109.863 177.264 103.86 161.83 92.5685H161.855Z" fill="#FFFDFD"/>
<path d="M191.155 80.9158V95.0916C191.156 102.291 193.657 109.195 198.107 114.286L224.526 144.509L233.318 124.386C234.85 120.883 235.647 117.019 235.648 113.102V80.9158H191.155Z" fill="#FDA57D"/>
<path opacity="0.1" d="M191.496 97.282C191.496 97.8065 191.496 98.3239 191.539 98.8484C197.658 105.091 205.572 108.538 213.771 108.53C221.97 108.522 229.879 105.06 235.988 98.8059V83.0778H191.496V97.282Z" fill="black"/>
<path d="M213.398 106.369C231.825 106.369 246.763 89.2801 246.763 68.2002C246.763 47.1203 231.825 30.0316 213.398 30.0316C194.971 30.0316 180.033 47.1203 180.033 68.2002C180.033 89.2801 194.971 106.369 213.398 106.369Z" fill="#FDA57D"/>
<path opacity="0.1" d="M191.155 57.4336H246.769C246.769 57.4336 269.013 31.9879 246.769 19.265C241.939 16.6322 236.88 14.589 231.676 13.1694C197.853 3.35972 165.69 35.3617 170.04 74.9691C171.068 84.3252 173.999 91.9802 180.034 95.6021C203.51 109.721 191.155 57.4336 191.155 57.4336Z" fill="black"/>
<path d="M191.155 55.6687H246.769C246.769 55.6687 269.013 30.223 246.769 17.5002C241.939 14.8673 236.88 12.8241 231.676 11.4045C197.853 1.59483 165.69 33.5968 170.04 73.2042C171.068 82.5603 173.999 90.2153 180.034 93.8372C203.51 107.978 191.155 55.6687 191.155 55.6687Z" fill="#333333"/>
<path d="M192.766 74.8841C194.474 74.8841 195.858 72.1137 195.858 68.6963C195.858 65.2789 194.474 62.5085 192.766 62.5085C191.059 62.5085 189.674 65.2789 189.674 68.6963C189.674 72.1137 191.059 74.8841 192.766 74.8841Z" fill="#FDA57D"/>
<path opacity="0.1" d="M175.765 147.379L177.314 142.071L181.948 145.607L175.765 147.379Z" fill="black"/>
<path opacity="0.1" d="M276.057 173.513C276.057 173.513 259.229 182.727 254.589 191.587L276.057 173.513Z" fill="black"/>
<path opacity="0.1" d="M268.498 115.555L266.956 120.856L263.864 115.555H268.498Z" fill="black"/>
<path d="M191.155 55.6687H246.769C246.769 55.6687 269.013 30.223 246.769 17.5002C241.939 14.8673 236.88 12.8241 231.676 11.4045C197.853 1.59483 165.69 33.5968 170.04 73.2042C171.068 82.5603 173.999 90.2153 180.034 93.8372C203.51 107.978 191.155 55.6687 191.155 55.6687Z" fill="#333333"/>
<path opacity="0.1" d="M340.773 198.575C340.773 198.575 352.056 226.637 337.241 229.054C322.427 231.471 329.187 205.55 329.187 205.55C329.187 205.55 327.706 197.86 324.1 197.427" fill="black"/>
<path opacity="0.1" d="M354.404 197.895C354.404 197.895 340.99 224.702 355.556 228.586C370.123 232.47 365.402 205.997 365.402 205.997C365.402 205.997 367.471 198.491 371.102 198.42" fill="black"/>
<path d="M339.466 197.789C339.466 197.789 350.749 225.85 335.934 228.267C321.12 230.684 327.88 204.763 327.88 204.763C327.88 204.763 326.399 197.052 322.805 196.619" fill="#FFD180"/>
<path d="M355.451 196.711C355.451 196.711 342.012 223.525 356.604 227.381C371.195 231.237 366.449 204.792 366.449 204.792C366.449 204.792 368.518 197.286 372.149 197.215" fill="#FFD180"/>
<path opacity="0.5" d="M331.436 222.434H331.182V227.913H331.436V222.434Z" fill="#58555D"/>
<path opacity="0.5" d="M335.538 222.434H335.284V227.913H335.538V222.434Z" fill="#58555D"/>
<path opacity="0.5" d="M333.313 220.69H333.059V228.352H333.313V220.69Z" fill="#58555D"/>
<path opacity="0.5" d="M358.078 221.264H357.824V226.743H358.078V221.264Z" fill="#58555D"/>
<path opacity="0.5" d="M362.18 221.264H361.926V226.743H362.18V221.264Z" fill="#58555D"/>
<path opacity="0.5" d="M359.956 219.513H359.702V227.175H359.956V219.513Z" fill="#58555D"/>
</g>
<defs>
<linearGradient id="paint0_linear" x1="300.5" y1="436.808" x2="300.5" y2="64.167" gradientUnits="userSpaceOnUse">
<stop stop-color="#808080" stop-opacity="0.25"/>
<stop offset="0.54" stop-color="#808080" stop-opacity="0.12"/>
<stop offset="1" stop-color="#808080" stop-opacity="0.1"/>
</linearGradient>
<linearGradient id="paint1_linear" x1="47111.3" y1="-314902" x2="29391.8" y2="-336925" gradientUnits="userSpaceOnUse">
<stop stop-color="#808080" stop-opacity="0.25"/>
<stop offset="0.54" stop-color="#808080" stop-opacity="0.12"/>
<stop offset="1" stop-color="#808080" stop-opacity="0.1"/>
</linearGradient>
<linearGradient id="paint2_linear" x1="6895.27" y1="-45695.1" x2="6579.03" y2="-46088.1" gradientUnits="userSpaceOnUse">
<stop stop-color="#808080" stop-opacity="0.25"/>
<stop offset="0.54" stop-color="#808080" stop-opacity="0.12"/>
<stop offset="1" stop-color="#808080" stop-opacity="0.1"/>
</linearGradient>
<linearGradient id="paint3_linear" x1="8049.91" y1="-44972.3" x2="7733.55" y2="-45365.5" gradientUnits="userSpaceOnUse">
<stop stop-color="#808080" stop-opacity="0.25"/>
<stop offset="0.54" stop-color="#808080" stop-opacity="0.12"/>
<stop offset="1" stop-color="#808080" stop-opacity="0.1"/>
</linearGradient>
<linearGradient id="paint4_linear" x1="6293.62" y1="-44174" x2="5977.27" y2="-44567.1" gradientUnits="userSpaceOnUse">
<stop stop-color="#808080" stop-opacity="0.25"/>
<stop offset="0.54" stop-color="#808080" stop-opacity="0.12"/>
<stop offset="1" stop-color="#808080" stop-opacity="0.1"/>
</linearGradient>
<linearGradient id="paint5_linear" x1="7383.86" y1="-43397.2" x2="7067.5" y2="-43790.4" gradientUnits="userSpaceOnUse">
<stop stop-color="#808080" stop-opacity="0.25"/>
<stop offset="0.54" stop-color="#808080" stop-opacity="0.12"/>
<stop offset="1" stop-color="#808080" stop-opacity="0.1"/>
</linearGradient>
<linearGradient id="paint6_linear" x1="34450.2" y1="33112.3" x2="34450.2" y2="19761.5" gradientUnits="userSpaceOnUse">
<stop stop-color="#808080" stop-opacity="0.25"/>
<stop offset="0.54" stop-color="#808080" stop-opacity="0.12"/>
<stop offset="1" stop-color="#808080" stop-opacity="0.1"/>
</linearGradient>
<linearGradient id="paint7_linear" x1="65888.2" y1="70540.6" x2="65888.2" y2="31229.8" gradientUnits="userSpaceOnUse">
<stop stop-color="#808080" stop-opacity="0.25"/>
<stop offset="0.54" stop-color="#808080" stop-opacity="0.12"/>
<stop offset="1" stop-color="#808080" stop-opacity="0.1"/>
</linearGradient>
<linearGradient id="paint8_linear" x1="344.1" y1="174.597" x2="344.1" y2="167.424" gradientUnits="userSpaceOnUse">
<stop stop-color="white"/>
<stop offset="1"/>
</linearGradient>
<linearGradient id="paint9_linear" x1="232635" y1="302421" x2="232635" y2="26194.3" gradientUnits="userSpaceOnUse">
<stop stop-color="#808080" stop-opacity="0.25"/>
<stop offset="0.54" stop-color="#808080" stop-opacity="0.12"/>
<stop offset="1" stop-color="#808080" stop-opacity="0.1"/>
</linearGradient>
<clipPath id="clip0">
<rect width="601" height="554" fill="white"/>
</clipPath>
</defs>
</svg>
